<?xml version="1.0" encoding="UTF-8" standalone="no"?>
<!DOCTYPE svg PUBLIC "-//W3C//DTD SVG 1.1//EN" "http://www.w3.org/Graphics/SVG/1.1/DTD/svg11.dtd">
<svg width="100%" height="100%" viewBox="0 0 1064 1064" version="1.1" xmlns="http://www.w3.org/2000/svg" xmlns:xlink="http://www.w3.org/1999/xlink" xml:space="preserve" xmlns:serif="http://www.serif.com/" style="fill-rule:evenodd;clip-rule:evenodd;stroke-linejoin:round;stroke-miterlimit:2;">
    <g id="Sfondo" transform="matrix(1.039062,0,0,1.039062,0,0)">
        <path d="M512.041,201.524C512.628,217.631 511.716,245.251 512.564,246.46C513.218,247.392 514.554,247.239 529.499,247.229C532.91,247.227 534.282,247.89 534.334,244.495C535.217,186.168 534.735,177.335 534.418,171.504C533.759,159.398 532.396,123.672 532.238,119.512C529.657,51.83 536.393,50.552 556.424,33.411C561.81,28.801 562.028,28.914 564.502,28.909C596.832,28.84 596.889,28.437 599.59,29.202C603.8,30.394 603.364,31.925 619.431,34.888C660.016,42.37 736.1,48.165 731.753,103.519C729.807,128.298 713.913,156.023 680.997,225.734C668.16,252.919 663.953,266.893 662.837,270.601C661.617,274.652 660.748,279.136 660.847,279.431C660.903,279.596 661.168,279.585 661.292,279.708C662.145,280.556 662.482,280.206 665.326,278.231C704.491,251.043 723.403,179.161 758.33,145.323C796.746,108.103 837.783,141.937 875.649,188.383C883.861,198.457 895.528,217.234 899.764,231.419C913.852,278.598 882.551,307.074 842.293,333.18C814.166,351.418 794.617,361.295 785.921,375.723C784.981,377.283 783.954,377.501 785.309,378.746C785.441,378.867 785.636,379.356 786.355,379.004C789.512,377.456 789.249,377.013 801.406,371.303C848.247,349.301 851.7,350.531 898.729,327.976C904.517,325.2 930.064,310.745 951.867,356.331C965.235,384.28 965.274,414.334 965.281,419.5C965.418,524.864 925.597,524.916 855.548,538.743C814.359,546.874 807.452,546.406 730.588,580.698C694.829,596.651 658.184,612.196 624.485,613.764C619.913,613.977 623.992,610.47 628.048,606.075C663.949,567.177 678.712,545.912 682.977,497.538C685.585,467.954 677.645,443.118 676.2,438.597C665.115,403.925 637.513,368.816 604.761,349.074C568.847,327.428 542.663,327.341 514.509,327.845C479.516,328.473 452.745,344.05 442.764,349.933C429.369,357.828 398.84,381.067 380.717,417.61C364.158,451 364.082,477.871 365.833,505.473C366.694,519.037 372.59,547.327 391.699,572.354C410.42,596.873 420.518,603.012 424.246,611.586C425.19,613.757 422.735,613.733 422.515,613.731C382.691,613.338 316.406,581.971 273.565,565.339C218.565,543.987 215.251,548.434 162.465,535.635C112.464,523.512 80.997,506.619 81.356,417.5C81.561,366.659 108.811,309.892 145.632,327.204C196.51,351.126 197.437,349.015 248.373,372.764C256.725,376.658 260.55,379.397 261.335,379.029C263.071,378.215 258.556,371.963 254.248,367.755C221.54,335.804 115.35,302.657 149.886,220.667C153.397,212.331 161.581,197.964 172.617,184.595C195.501,156.875 215.21,142.169 223.753,137.987C254.252,123.058 269.119,143.358 304.702,190.352C321.274,212.239 358.716,270.862 387.462,281.732C388.466,282.111 388.684,282.296 389.19,281.366C389.537,280.728 388.621,279.698 383.8,269.362C366.499,232.273 343.948,171.15 324.634,126.443C311.204,95.355 321.278,82.783 341.418,65.403C373.404,37.802 393.024,38.971 421.569,32.846C430.967,30.83 430.542,28.928 435.502,28.914C437.503,28.908 498.161,28.895 498.474,28.918C500.861,29.087 500.797,30.723 501.418,42.504C502.341,60.044 506.513,119.748 506.982,126.463C507.401,132.466 510.229,172.937 512.041,201.524Z" style="fill:rgb(22,38,70);"/>
        <path d="M622.433,794.069C599.492,797.283 599.442,796.942 527.5,796.942C446.125,796.942 438.381,797.78 412.472,791.606C375.345,782.76 353.416,763.734 336.362,755.795C303.456,740.476 266.853,736.871 225.298,717.966C209.819,710.924 188.757,703.197 145.772,677.061C133.642,669.685 103.972,648.902 100.61,646.35C99.047,645.163 67.637,622.229 64.768,620.134C58.114,615.275 56.955,614.212 58.521,612.523C60.517,610.371 62.542,614.207 91.651,596.755C128.375,574.738 145.036,575.932 205.5,576.055C302.662,576.253 358.384,646.442 498.49,649.929C522.579,650.528 562.895,650.162 568.496,650.112C685.294,649.052 718.811,595.371 809.419,580.013C812.384,579.511 829.876,575.146 883.506,576.139C941.711,577.216 951.845,601.246 985.495,611.516C993.954,614.098 985.237,616.572 965.32,633.282C940.968,653.712 922.166,668.441 870.398,695.304C842.118,709.979 808.908,724.821 792.397,730.19C749.259,744.218 726.36,744.608 692.674,765.782C659.007,786.944 638.454,790.867 622.433,794.069Z" style="fill:rgb(21,37,69);"/>
        <path d="M619.722,952.302C620.824,952.276 621.161,952.537 621.402,951.446C622.505,946.454 622.364,946.467 623.593,941.523C624.229,938.97 631.085,911.398 631.915,909.702C632.689,908.12 633.237,908.37 658.5,908.369C661.799,908.368 666.121,907.969 666.669,909.426C666.923,910.101 666.861,914.09 666.852,989.5C666.851,991.943 667.199,993.728 664.516,993.809C664.179,993.819 644.71,993.821 644.468,993.804C641.928,993.625 642.408,992.41 642.409,978.5C642.411,945.571 642.302,941.219 643.06,936.536C643.247,935.379 643.275,935.32 642.51,934.477C642.307,934.254 642.133,933.858 641.831,933.877C641.075,933.923 641.629,935.961 637.44,951.483C633.161,967.342 627.271,992.197 626.201,993.191C625.147,994.172 610.979,994.2 609.879,993.14C609.17,992.456 607.682,986.083 602.183,965.583C595.448,940.477 595.671,940.423 595.053,936.651C595.008,936.375 594.316,932.15 592.934,933.863C591.897,935.148 593.333,935.392 593.37,954.5C593.443,992.438 593.278,992.437 593.277,992.44C592.536,994.118 591.729,993.822 578.501,993.813C576.863,993.812 573.758,994.414 573.692,991.49C573.683,991.113 573.676,911.078 573.695,910.514C573.784,907.903 575.114,908.369 591.5,908.369C606.743,908.369 607.665,907.909 608.474,910.509C608.611,910.949 618.528,946.769 618.667,947.454C619.166,949.912 619.128,949.876 619.722,952.302Z" style="fill:rgb(22,38,70);"/>
        <path d="M255.221,976.616C255.725,977.806 261.469,991.377 261.513,991.496C262.233,993.431 261.608,993.824 259.521,993.835C257.599,993.845 238.243,993.948 235.49,993.8C232.473,993.638 232.172,990.847 230.127,985.644C220.978,962.371 221.288,961.796 219.55,961.322C218.775,961.111 214.077,961.032 213.5,961.499C212.344,962.435 212.724,962.777 212.672,990.501C212.664,994.726 210.625,993.815 203.5,993.814C187.625,993.812 186.926,994.101 186.443,992.52C186.224,991.805 186.11,910.536 186.491,909.496C186.976,908.171 187.514,908.369 213.5,908.369C233.031,908.369 250.38,906.405 259.271,921.629C262.996,928.009 265.512,945.812 251.33,954.226C248.298,956.025 248.126,955.838 247.719,956.628C247.155,957.725 247.343,957.915 255.221,976.616ZM234.809,934.494C234.478,931.924 234.288,929.005 229.571,927.295C226.492,926.178 214.061,926.644 213.646,926.821C212.359,927.373 212.675,930.412 212.671,937.5C212.669,941.271 211.731,942.899 215.492,942.918C227.365,942.98 233.962,943.408 234.809,934.494Z" style="fill:rgb(22,38,70);"/>
        <path d="M719.044,952.501C719.141,948.654 718.882,948.632 719.813,942.546C720.147,940.363 722.164,927.173 731.568,917.567C745.829,903 772.045,905.241 783.324,913.74C793.923,921.726 796.993,935.057 796.2,936.321C795.737,937.058 795.575,937.003 785.455,938.005C772.482,939.289 772.277,939.302 771.535,938.471C771.212,938.11 771.308,938.062 770.602,935.47C769.64,931.936 767.267,928.506 764.623,927.258C755.72,923.054 747.611,929.796 746.887,944.526C746.099,960.568 747.943,968.984 753.489,972.516C765.582,980.219 774.763,967.147 771.542,964.439C770.482,963.546 759.861,964.884 758.63,963.396C757.868,962.475 757.963,947.266 758.591,946.574C759.328,945.764 759.528,945.891 776.5,945.891C795.671,945.891 796.472,945.62 796.837,947.431C796.854,947.516 796.991,991.848 796.759,992.593C796.485,993.476 796.286,993.985 786.491,993.806C783.076,993.744 783.301,991.234 781.713,987.388C780.812,985.208 779.94,985.632 778.307,987.296C777.277,988.345 771.979,993.742 761.537,994.82C734.697,997.59 718.505,976.866 719.044,952.501Z" style="fill:rgb(22,38,70);"/>
        <path d="M28.909,969.5L28.909,937.5C28.909,909.61 28.796,909.335 29.667,908.723C30.175,908.365 34.112,908.368 34.5,908.369C75.776,908.4 86.562,906.79 96.406,919.569C103.009,928.141 102.22,939.156 100.317,944.441C90.872,970.672 57.726,959.804 55.93,963.704C55.469,964.705 55.809,987.982 55.7,991.514C55.604,994.618 51.617,993.813 49.501,993.813C30.461,993.814 30.169,993.92 29.589,993.394C28.796,992.676 28.909,992.472 28.909,969.5ZM75.097,938.397C76.121,931.119 73.478,927.936 64.494,927.784C57.721,927.669 55.585,927.565 55.251,929.459C55.2,929.751 55.236,942.198 55.259,942.532C55.384,944.333 57.271,944.407 57.506,944.417C73.878,945.061 74.011,940.974 75.097,938.397Z" style="fill:rgb(22,38,70);"/>
        <path d="M175.91,981.501C175.901,991.913 176.521,993.723 173.517,993.802C172.851,993.82 113.749,993.832 113.463,993.795C111.119,993.49 111.545,992.431 111.545,978.5C111.545,909.849 111.484,909.721 112.03,909.104C112.781,908.254 113.006,908.369 145.5,908.369C174.506,908.369 174.613,908.299 175.249,908.798C176.059,909.433 175.918,910.636 175.911,922.5C175.911,922.561 176.467,927.328 174.663,927.918C173.061,928.442 139.79,927.763 138.408,928.308C137.402,928.705 137.354,930.296 137.348,930.49C137.085,939.087 137.557,939.481 138.141,939.969C139.411,941.03 165.919,939.861 167.442,940.626C168.605,941.21 168.452,942.477 168.428,954.5C168.428,954.852 168.421,958.308 167.888,958.866C166.978,959.819 165.222,959.455 140.5,959.51C136.862,959.518 137.351,960.881 137.341,964.5C137.326,969.544 136.942,972.489 138.56,973.31C139.555,973.815 173.911,972.867 175.226,973.859C176.195,974.59 175.903,979.223 175.91,981.501Z" style="fill:rgb(22,38,70);"/>
        <path d="M921.144,970.39C940.068,910.011 939.338,909.057 941.502,908.507C942.605,908.226 966.499,908.399 966.512,908.401C968.872,908.746 968.768,910.674 974.233,927.587C976.907,935.862 994.563,991.968 994.53,992.502C994.431,994.134 992.822,993.816 980.5,993.816C969.607,993.816 968.501,994.392 967.588,991.472C963.938,979.797 964.376,979.68 964.004,978.685C963.213,976.566 960.398,977.053 954.5,977.053C941.474,977.051 940.434,976.474 939.465,979.489C935.423,992.073 936.403,993.333 933.536,993.767C931.109,994.134 917.838,993.851 916.473,993.822C916.159,993.816 913.876,993.912 914.529,991.506C914.662,991.016 920.613,972.079 921.144,970.39ZM952.07,934.992C951.839,935.246 951.786,935.332 951.645,935.603C951.133,936.587 951.312,936.034 950.42,938.474C947.644,946.071 944.57,956.966 945.881,958.057C946.609,958.662 957.231,958.347 957.411,958.275C959.41,957.472 958.068,956.653 953.814,940.416C953.088,937.645 953.363,937.55 952.07,934.992Z" style="fill:rgb(22,38,70);"/>
        <path d="M485.979,989.641C492.199,970.497 506.504,923.071 510.245,911.42C511.478,907.58 512.646,908.367 518.5,908.365C538.028,908.361 538.458,908.152 539.328,909.598C540.186,911.024 561.205,978.618 563.075,984.63C565.206,991.485 566.149,993.175 564.589,993.692C564.489,993.726 540.818,994.241 539.578,993.395C538.02,992.332 535.457,978.949 534.262,977.724C533.549,976.993 529.885,976.987 529.5,976.986C512.804,976.958 512.749,976.794 511.465,977.453C509.858,978.278 507.343,992.346 505.469,993.449C504.229,994.179 504.116,993.93 487.486,993.821C484.523,993.801 485.13,992.463 485.979,989.641ZM517.78,951.572C517.206,953.679 515.458,957.934 517.536,958.352C517.865,958.418 524.647,958.371 525.5,958.376C525.729,958.378 528.067,958.394 528.356,958.207C529.653,957.366 528.832,956.914 524.849,941.403C523.501,936.15 524.074,935.2 522.461,935.374C521.448,935.483 521.968,936.069 518.855,947.591L517.78,951.572Z" style="fill:rgb(22,38,70);"/>
        <path d="M357.982,925.645C362.722,911.494 362.574,909.049 364.505,908.519C366.532,907.963 386.583,908.339 388.502,908.375C391.847,908.438 391.76,910.034 392.803,913.406C415.065,985.405 415.693,985.2 417.468,991.507C417.52,991.691 417.975,993.308 416.589,993.728C416.2,993.846 393.372,993.933 392.452,993.663C389.321,992.744 388.574,978.035 385.604,977.186C384.347,976.827 366.151,977.02 365.477,977.057C362.485,977.218 362.779,979.061 359.815,988.595C358.759,991.992 359.384,993.812 354.498,993.815C338.547,993.822 337.668,994.11 337.605,992.49C337.55,991.113 354.839,936.161 357.982,925.645ZM380.122,952.602C375.392,935.647 375.221,933.584 374.652,934.949C373.982,936.558 374.067,936.378 373.381,938.463C372.101,942.353 368.188,955.991 368.734,957.411C369.045,958.218 369.261,958.781 379.489,958.383C382.225,958.277 380.742,954.836 380.122,952.602Z" style="fill:rgb(22,38,70);"/>
        <path d="M487.822,925.501C487.669,928.05 487.596,928.778 484.501,928.783C452.763,928.833 452.368,928.483 451.663,929.594C451.295,930.172 450.894,941.108 451.966,942.021C453.281,943.141 476.785,941.934 478.379,942.753C479.271,943.212 479.37,943.481 479.305,958.499C479.287,962.689 477.048,961.717 470.5,961.717C452.651,961.717 452.318,961.555 451.678,962.598C450.929,963.819 451.624,991.566 451.259,992.437C450.583,994.047 450.234,993.802 448.503,993.813C446.818,993.825 428.377,993.949 427.441,993.735C425.522,993.296 425.825,992.468 425.825,972.5C425.825,909.89 425.777,909.803 426.181,909.301C427.066,908.201 427.35,908.369 449.5,908.369C486.438,908.369 486.56,908.301 487.19,908.829C487.957,909.47 487.821,909.729 487.822,925.501Z" style="fill:rgb(23,39,71);"/>
        <path d="M841.5,972.844C869.473,972.858 869.704,972.711 870.429,973.55C870.898,974.093 871.231,992.274 870.241,993.266C869.624,993.884 869.458,993.817 820.5,993.816C813.147,993.816 810.736,994.447 810.564,991.496C810.196,985.187 810.561,985.217 810.563,912.5C810.563,909.849 810.298,908.39 813.496,908.364C815.257,908.35 834.449,908.194 835.508,908.474C837.164,908.912 836.928,909.602 836.929,928.5C836.931,971.185 836.912,971.18 836.986,971.401C837.645,973.35 840.802,972.828 841.5,972.844Z" style="fill:rgb(22,38,71);"/>
        <path d="M334.942,984.498C335.217,993.316 334.286,993.554 333.562,993.739C333.068,993.866 276.938,993.856 276.442,993.749C274.507,993.331 274.82,992.487 274.82,973.5C274.82,909.869 274.78,909.783 275.172,909.294C276.041,908.212 276.313,908.358 295.5,908.371C299.478,908.373 301.148,907.511 301.155,911.502C301.254,971.314 300.859,971.516 301.666,972.33C302.622,973.295 316.167,972.707 332.494,972.853C335.066,972.876 334.938,973.822 335.013,978.497C335.062,981.52 335.011,981.494 334.942,984.498Z" style="fill:rgb(23,39,70);"/>
        <path d="M897.5,993.813C881.036,993.809 880.562,994.042 880.042,992.742C879.722,991.938 879.786,991.914 879.767,918.5C879.765,910.858 879.016,908.404 882.495,908.364C884.257,908.343 903.08,908.124 904.513,908.445C906.473,908.884 906.133,909.738 906.133,928.5C906.133,992.115 906.145,992.129 906.042,992.39C905.284,994.321 901.641,993.811 897.5,993.813Z" style="fill:rgb(24,40,71);"/>
        <path d="M692.5,993.816C684.348,993.808 681.766,994.418 681.589,991.495C681.571,991.192 681.57,910.933 681.588,910.507C681.702,907.784 684.791,908.371 692.5,908.368C706.448,908.362 707.778,907.894 707.927,910.448C707.948,910.818 707.939,991.34 707.93,991.539C707.817,994.334 706.436,993.816 692.5,993.816Z" style="fill:rgb(22,39,70);"/>
        <path d="M281.923,855.437C281.861,854.561 281.413,848.227 282.383,844.469C287.911,823.038 316.823,825.041 319.573,845.489C322.425,866.685 304.046,876.224 292.307,869.879C283.104,864.905 282.437,857.488 281.923,855.437ZM298.579,867.113C301.668,867.444 306.832,868.228 311.77,860.661C317.39,852.049 314.127,833.592 300.501,833.439C285.105,833.265 281.746,862.038 297.403,866.803C297.791,866.921 298.191,866.995 298.579,867.113Z" style="fill:rgb(45,44,43);"/>
        <path d="M642.932,851.497C643.109,848.014 643.136,847.779 643.173,847.458C645.758,824.734 675.765,823.24 680.478,843.505C685.33,864.368 666.335,877.108 653.363,869.764C642.916,863.849 643.218,854.86 642.932,851.497ZM659.595,867.064C663.105,867.492 664.841,867.719 668.515,865.523C680.037,858.638 677.562,833.145 661.499,833.44C648.041,833.687 643.126,857.138 655.598,865.348C657.424,866.55 657.509,866.311 659.595,867.064Z" style="fill:rgb(45,44,43);"/>
        <path d="M255.509,871.827C229.022,871.142 231.186,829.94 255.487,829.128C271.31,828.599 279.227,846.68 272.061,861.265C270.869,863.691 267.581,867.066 266.17,868.053C260.821,871.797 256.833,871.722 255.509,871.827ZM253.572,867.127C253.777,867.146 260.867,869.07 266.206,861.306C272.117,852.709 269.332,834.743 256.501,833.486C239.871,831.856 236.235,862.322 252.4,866.836C252.788,866.944 253.185,867.019 253.572,867.127Z" style="fill:rgb(46,45,43);"/>
        <path d="M403.21,856.499C403.336,869.247 403.926,870.386 401.513,870.63C397.051,871.083 397.889,868.981 398.077,864.487C398.715,849.225 398.027,835.051 397.903,832.495C397.739,829.118 401.458,829.841 405.507,829.76C409.749,829.675 426.333,827.908 424.238,841.457C423.35,847.196 417.942,849.676 417.898,849.772C417.808,849.972 417.943,850.21 417.945,850.43C417.953,851.467 418.359,851.243 419.226,851.815C420.475,852.64 423.038,854.333 427.84,868.421C428.909,871.56 423.383,871.101 422.464,869.525C419.874,865.085 419.743,854.6 411.51,853.423C404.01,852.351 403.54,853.816 403.339,854.443L403.21,856.499ZM410.541,848.86C411.798,848.646 413.827,848.594 416.585,846.606C416.955,846.34 419.118,844.78 419.081,841.487C418.963,831.071 404.288,833.904 403.609,834.605C402.946,835.29 402.934,835.415 403.161,846.516C403.225,849.642 405.233,849.21 410.541,848.86Z" style="fill:rgb(47,46,45);"/>
        <path d="M329.095,865.488C329.728,831.978 327.937,830.686 330.56,829.881C330.601,829.869 341.289,829.667 343.496,829.71C359.001,830.011 357.374,842.899 354.288,847.358C349.298,854.568 337.494,854.121 336.465,854.221C333.754,854.484 334.449,857.173 334.766,865.488C334.899,868.965 335.998,870.549 332.505,870.639C328.587,870.739 328.937,869.301 329.095,865.488ZM334.212,837.505C334.226,838.305 334.198,838.28 334.348,847.505C334.374,849.117 334.292,850.66 340.455,850.043C341.636,849.924 353.475,848.739 350.802,839.413C348.606,831.753 335.565,833.643 334.679,834.646C333.673,835.785 334.258,835.959 334.212,837.505Z" style="fill:rgb(46,46,44);"/>
        <path d="M459.831,844.365C469.836,868.759 470.654,869.989 468.524,870.574C468.271,870.644 464.767,870.863 463.834,870.104C462.593,869.095 461.001,858.295 458.464,857.619C458.037,857.506 443.052,857.063 441.75,857.876C439.768,859.113 438.463,869.749 436.472,870.428C436.369,870.463 431.719,871.407 431.581,869.49C431.458,867.779 442.745,843.248 446.271,833.417C447.007,831.366 446.751,829.438 452.479,829.852C455.321,830.057 454.704,832.254 459.831,844.365ZM449.872,834.963C449.32,836.187 449.581,836.284 443.779,850.6C442.366,854.085 444.756,853.398 448.5,853.382C454.156,853.358 456.661,853.762 457.258,852.444C457.661,851.555 453.2,842.413 451.603,836.443C451.571,836.322 451.235,835.066 451.039,834.985C450.996,834.967 451.146,835.273 450.53,835.261C450.145,835.254 450.255,834.97 449.872,834.963Z" style="fill:rgb(46,46,45);"/>
        <path d="M564.873,843.657C565.224,842.838 567.291,838.008 569.05,833.333C569.525,832.07 569.566,829.915 572.509,829.848C576.047,829.768 576.859,829.309 578.067,832.649C585.256,852.518 590.162,861.669 592.221,868.563C592.339,868.957 593.17,871.74 587.486,870.573C584.281,869.915 584.642,858.039 580.502,857.487C580.093,857.432 565.979,857.424 565.5,857.499C562.59,857.958 561.376,866.308 560.206,869.365C559.542,871.098 555.364,870.838 554.726,870.223C553.774,869.306 554.114,868.887 564.873,843.657ZM566.886,849.653C566.746,850.282 566.32,850.824 566.181,851.453C566.14,851.639 565.763,853.341 567.511,853.421C568.389,853.461 573.207,853.68 578.489,853.417C580.466,853.319 580.071,851.777 580.024,851.592C579.768,850.591 579.28,850.778 575.312,839.571C574.672,837.762 574.425,835.653 573.636,835.215C572.341,834.497 572.355,835.26 571.868,836.666C570.351,841.041 570.46,841.067 566.886,849.653Z" style="fill:rgb(47,46,45);"/>
        <path d="M767.148,844.644C776.802,867.938 777.343,869.353 776.317,870.257C775.849,870.67 771.445,871.281 770.561,869.466C769.747,867.793 768.036,858.118 765.487,857.555C764.926,857.431 750.688,857.306 749.54,857.632C746.603,858.465 745.971,869.802 743.496,870.485C743.123,870.588 739.488,871.59 738.765,869.475C738.33,868.204 746.411,852.063 753.734,832.582C755.009,829.189 755.87,829.769 759.486,829.85C762.174,829.91 762.54,832.817 762.751,833.41C764.196,837.474 766.78,843.751 767.148,844.644ZM756.942,834.962C754.734,840.761 754.923,840.801 752.643,846.558C751.877,848.494 748.891,853.37 752.507,853.408C763.875,853.526 764.281,853.429 764.453,852.486C764.711,851.068 760.525,842.839 758.738,836.348C758.706,836.229 758.362,834.98 758.149,834.916C758.092,834.898 758.218,835.181 757.462,835.209C757.15,835.221 757.252,834.95 756.942,834.962Z" style="fill:rgb(47,46,44);"/>
        <path d="M815.12,861.494C815.217,853.037 815.242,849.304 815.176,842.506C815.071,831.803 814.463,830.502 816.557,829.878C816.773,829.814 836.299,829.828 836.468,829.853C838.895,830.21 838.544,833.032 837.817,833.788C836.355,835.307 822.072,833.304 820.627,834.625C819.68,835.491 820.136,846.005 820.535,846.478C821.68,847.834 822.046,847.126 832.508,847.043C832.848,847.041 836.404,847.013 834.745,850.659C833.827,852.678 822.37,850.372 820.789,851.781C819.647,852.798 820.372,864.726 820.743,865.367C821.335,866.389 821.605,866.569 835.49,866.076C836.456,866.042 840.597,865.248 840.141,868.478C839.806,870.85 838.46,870.632 836.5,870.635C816.108,870.666 816.048,870.574 815.656,870.258C814.775,869.548 814.992,868.772 815.12,861.494Z" style="fill:rgb(47,46,45);"/>
        <path d="M382.489,866.128C384.012,866.06 383.973,866.083 385.522,865.993C392.842,865.567 389.139,870.303 388.498,870.494C386.888,870.974 386.849,870.712 367.498,870.642C363.6,870.628 364.687,868.693 364.8,859.505C365.118,833.479 363.901,830.573 365.664,829.981C367.168,829.476 367.214,829.679 385.494,829.83C385.842,829.833 389.461,829.863 387.669,833.603C386.806,835.405 372.88,833.423 370.482,834.472C368.838,835.192 369.937,846.229 369.962,846.282C370.88,848.273 381.727,846.508 383.656,847.174C384.107,847.33 386.956,851.667 381.5,851.507C372.589,851.247 369.907,850.704 369.75,853.516C369.716,854.126 369.864,863.012 369.903,863.481C370.19,866.917 371.732,866.319 382.489,866.128Z" style="fill:rgb(47,47,45);"/>
        <path d="M613.57,871.077C613.103,870.968 610.021,870.866 610.423,868.491C611.201,863.883 614.48,866.887 619.521,867.081C620.711,867.127 630.231,867.762 631.493,862.498C633.205,855.352 622.762,853.341 615.815,849.033C609.966,845.407 609.996,838.762 611.651,835.573C614.86,829.389 621.863,829.325 625.502,829.377C632.853,829.482 634.318,830.078 633.899,832.557C633.418,835.404 632.395,834.772 629.535,834.29C628.449,834.108 618.078,832.363 615.995,836.753C611.009,847.264 637.059,845.455 636.587,860.502C636.125,875.227 614.455,871.174 613.57,871.077Z" style="fill:rgb(45,44,43);"/>
        <path d="M536.726,863.179C536.992,862.726 537.77,862.754 538.036,862.3C538.053,862.272 538.188,860.75 538.827,858.618C541.892,848.395 543.134,848.86 548.599,831.536C549.364,829.109 553.997,829.163 554.073,831.478C554.154,833.972 544.86,852.415 539.146,868.383C537.874,871.938 534.9,870.994 534.098,868.639C529.184,854.216 519.827,833.766 519.933,831.486C520.045,829.081 524.123,829.872 524.358,829.977C526.123,830.766 525.198,831.529 533.205,852.609C535.19,857.833 534.696,857.967 536.726,863.179Z" style="fill:rgb(46,46,44);"/>
        <path d="M688.087,851.505C688.144,849.715 687.563,843.384 693.954,835.917C694.921,834.788 699.84,830.294 706.515,829.625C715.875,828.688 716.22,830.664 715.896,832.57C715.273,836.227 713.015,833.473 706.463,834.197C687.845,836.254 688.304,871.274 715.46,866.276C720.083,865.425 717.975,869.741 717.318,870.257C716.097,871.214 689.548,876.609 688.087,851.505Z" style="fill:rgb(46,45,44);"/>
        <path d="M227.44,871.086C224.65,871.313 206.549,874.273 201.738,856.442C198.412,844.117 207.505,827.245 226.487,829.599C230.454,830.091 229.575,834.835 226.498,834.514C223.467,834.197 213.989,831.904 208.719,841.615C202.564,852.955 210.971,869.434 226.528,866.683C229.932,866.081 231.892,865.065 231.304,868.472C230.884,870.907 228.778,870.825 227.44,871.086Z" style="fill:rgb(45,45,44);"/>
        <path d="M487.95,865.491C488.082,869.403 488.405,870.947 484.488,870.639C481.408,870.397 482.583,868.785 482.694,852.501C482.806,836.018 482.943,835.908 482.13,834.742C480.816,832.856 470.835,835.478 469.842,833.337C469.435,832.458 469.491,830.091 471.535,829.857C471.83,829.823 498.272,829.839 498.479,829.844C501.521,829.924 501.35,834.191 498.489,834.188C489.715,834.18 488.711,832.978 488.032,835.325C487.812,836.085 487.824,838.776 487.831,848.5C487.835,853.497 487.815,853.484 487.95,865.491Z" style="fill:rgb(51,50,49);"/>
        <path d="M802.492,866.124C802.898,866.122 807.193,866.097 807.557,866.426C807.684,866.542 808.301,867.1 808.194,868.479C808,870.967 805.492,870.634 804.501,870.639C786.082,870.721 786.03,870.976 784.522,870.447C782.408,869.705 784.358,863.092 783.56,835.498C783.43,831.026 783.084,829.04 787.457,829.846C789.811,830.28 788.982,834.52 788.93,838.507C788.618,862.431 788.521,862.416 788.569,864.494C788.62,866.745 791.296,866.271 802.492,866.124Z" style="fill:rgb(48,47,45);"/>
        <path d="M512.959,841.507C512.983,843.739 513.253,868.996 513.149,869.403C512.767,870.907 507.408,871.759 507.407,868.505C507.407,867.815 508.103,857.305 507.762,840.494C507.598,832.461 506.636,829.935 509.527,829.841C514.787,829.672 513.15,832.229 513.068,837.486C513.037,839.52 513.014,839.495 512.959,841.507Z" style="fill:rgb(47,46,45);"/>
        <path d="M726.648,848.5C726.537,832.81 726.091,832.806 726.349,831.468C726.744,829.426 731.978,828.431 731.919,832.495C731.437,865.658 732.022,865.654 731.951,868.537C731.876,871.559 726.369,871.576 726.278,868.515C726.121,863.27 726.6,863.304 726.648,848.5Z" style="fill:rgb(43,42,40);"/>
    </g>
</svg>
